<?xml version="1.0" encoding="UTF-8"?>
<svg width="22px" height="19px" viewBox="0 0 22 19" version="1.1" xmlns="http://www.w3.org/2000/svg" xmlns:xlink="http://www.w3.org/1999/xlink">
    <!-- Generator: Sketch 53 (72520) - https://sketchapp.com -->
    <title>icon phong trong</title>
    <desc>Created with Sketch.</desc>
    <defs>
        <polygon id="path-1" points="1.71875e-05 0.0383046818 22 0.0383046818 22 11.974208 1.71875e-05 11.974208"></polygon>
    </defs>
    <g id="Page-1" stroke="none" stroke-width="1" fill="none" fill-rule="evenodd">
        <g id="Phong-trong-menu-expand" transform="translate(-29.000000, -106.000000)">
            <g id="side-menu">
                <g id="icon-phong-trong" transform="translate(29.000000, 106.000000)">
                    <g id="Group-3" transform="translate(0.000000, 6.558926)">
                        <mask id="mask-2" fill="white">
                            <use xlink:href="#path-1"></use>
                        </mask>
                        <g id="Clip-2"></g>
                        <path d="M4.35975547,4.29958867 C4.35975547,3.88240897 4.70200156,3.5429977 5.12266563,3.5429977 L8.52286875,3.5429977 C8.94353281,3.5429977 9.28573594,3.88240897 9.28573594,4.29958867 L9.28573594,5.03363745 L4.35975547,5.03363745 L4.35975547,4.29958867 Z M12.7142555,4.29958867 C12.7142555,3.88240897 13.0564586,3.5429977 13.4771227,3.5429977 L16.8773258,3.5429977 C17.2979898,3.5429977 17.6402359,3.88240897 17.6402359,4.29958867 L17.6402359,5.03363745 L12.7142555,5.03363745 L12.7142555,4.29958867 Z M20.3831461,1.44512498 C20.3831461,0.669443454 19.7467359,0.0383046818 18.9645758,0.0383046818 L6.34469688,0.0383046818 C6.16624766,0.0383046818 6.02161484,0.181739501 6.02161484,0.358753238 C6.02161484,0.535766975 6.16624766,0.679201794 6.34469688,0.679201794 L18.9645758,0.679201794 C19.390482,0.679201794 19.7369391,1.02278912 19.7369391,1.44512498 L19.7369391,5.03359484 L18.286443,5.03359484 L18.286443,4.29954606 C18.286443,3.52897808 17.6543297,2.90210059 16.8773258,2.90210059 L13.4771227,2.90210059 C12.7001617,2.90210059 12.0680484,3.52897808 12.0680484,4.29954606 L12.0680484,5.03359484 L9.93194297,5.03359484 L9.93194297,4.29954606 C9.93194297,3.52897808 9.29982969,2.90210059 8.52286875,2.90210059 L5.12266563,2.90210059 C4.34566172,2.90210059 3.71354844,3.52897808 3.71354844,4.29954606 L3.71354844,5.03359484 L2.26309531,5.03359484 L2.26309531,1.44512498 C2.26309531,1.02278912 2.60955234,0.679201794 3.03541563,0.679201794 L5.05223984,0.679201794 C5.23073203,0.679201794 5.37536484,0.535766975 5.37536484,0.358753238 C5.37536484,0.181739501 5.23073203,0.0383046818 5.05223984,0.0383046818 L3.03541563,0.0383046818 C2.25325547,0.0383046818 1.61688828,0.669400841 1.61688828,1.44512498 L1.61688828,5.04480202 C0.708829688,5.14421777 1.71875e-05,5.90945915 1.71875e-05,6.83603274 L1.71875e-05,11.6537978 C1.71875e-05,11.8307689 0.14465,11.9742464 0.323099219,11.9742464 L5.05223984,11.9742464 C5.23073203,11.9742464 5.37536484,11.8307689 5.37536484,11.6537978 C5.37536484,11.4767841 5.23073203,11.3333493 5.05223984,11.3333493 L0.646224219,11.3333493 L0.646224219,7.99271567 L17.1552047,7.99271567 C17.3336969,7.99271567 17.4782867,7.84932347 17.4782867,7.67226712 C17.4782867,7.49529599 17.3336969,7.35186117 17.1552047,7.35186117 L0.646224219,7.35186117 L0.646224219,6.83611797 C0.646224219,6.19560437 1.17160313,5.67457718 1.81746641,5.67457718 L20.182482,5.67457718 C20.8283453,5.67457718 21.3538102,6.19560437 21.3538102,6.83611797 L21.3538102,7.35186117 L18.4476188,7.35186117 C18.2691266,7.35186117 18.1244937,7.49529599 18.1244937,7.67226712 C18.1244937,7.84932347 18.2691266,7.99271567 18.4476188,7.99271567 L21.3538102,7.99271567 L21.3538102,11.3333493 L6.34469688,11.3333493 C6.16624766,11.3333493 6.02161484,11.4767841 6.02161484,11.6537978 C6.02161484,11.8307689 6.16624766,11.9742464 6.34469688,11.9742464 L21.6768922,11.9742464 C21.8552984,11.9742464 22.0000172,11.8307689 22.0000172,11.6537978 L22.0000172,6.83603274 C22.0000172,5.90945915 21.2912047,5.14421777 20.3831461,5.04480202 L20.3831461,1.44512498 Z" id="Fill-1" fill="#FFFFFF" mask="url(#mask-2)"></path>
                    </g>
                    <path d="M10.1489953,5.56486616 C10.3274445,5.56486616 10.4720773,5.42143134 10.4720773,5.24441761 C10.4720773,5.06744648 10.3274445,4.92401166 10.1489953,4.92401166 L9.15302266,4.92401166 L10.3871711,3.58869571 C10.5733547,3.38717959 10.4239953,3.05177393 10.1489953,3.05177393 L8.58119453,3.05177393 C8.40270234,3.05177393 8.2581125,3.19520875 8.2581125,3.37217987 C8.2581125,3.54919361 8.40270234,3.69262843 8.58119453,3.69262843 L9.41453047,3.69262843 L8.180425,5.02794438 C7.99424141,5.22950311 8.14355781,5.56486616 8.41860078,5.56486616 L10.1489953,5.56486616 Z" id="Fill-4" fill="#FFFFFF"></path>
                    <path d="M14.9605285,3.65798419 C15.1389777,3.65798419 15.2836105,3.51454937 15.2836105,3.33753563 C15.2836105,3.16056451 15.1389777,3.01712969 14.9605285,3.01712969 L12.9065363,3.01712969 L15.1987043,0.536934567 C15.3849309,0.335375834 15.2355285,1.2783852e-05 14.9605285,1.2783852e-05 L12.3353527,1.2783852e-05 C12.1592668,1.2783852e-05 12.0122277,0.145833922 12.0122277,0.320418727 C12.0122277,0.495046145 12.1592668,0.640867283 12.3353527,0.640867283 L14.2260637,0.640867283 L11.9338957,3.12106241 C11.7476262,3.32253591 11.8970715,3.65798419 12.1721145,3.65798419 L14.9605285,3.65798419 Z" id="Fill-6" fill="#FFFFFF"></path>
                </g>
            </g>
        </g>
    </g>
</svg>