<?xml version="1.0" encoding="UTF-8"?>
<svg width="22px" height="20px" viewBox="0 0 22 20" version="1.1" xmlns="http://www.w3.org/2000/svg" xmlns:xlink="http://www.w3.org/1999/xlink">
    <!-- Generator: Sketch 53 (72520) - https://sketchapp.com -->
    <title>icon giao dich</title>
    <desc>Created with Sketch.</desc>
    <defs>
        <polygon id="path-1" points="0.0140850624 0.00391887179 19.9434783 0.00391887179 19.9434783 9.78680288 0.0140850624 9.78680288"></polygon>
        <polygon id="path-3" points="0 0.00798557692 20.204767 0.00798557692 20.204767 9.85575772 0 9.85575772"></polygon>
    </defs>
    <g id="Page-1" stroke="none" stroke-width="1" fill="none" fill-rule="evenodd">
        <g id="Phong-trong-menu-expand" transform="translate(-29.000000, -155.000000)">
            <g id="side-menu">
                <g id="icon-giao-dich" transform="translate(29.000000, 155.000000)">
                    <g id="Group-3" transform="translate(2.056522, 0.044183)">
                        <mask id="mask-2" fill="white">
                            <use xlink:href="#path-1"></use>
                        </mask>
                        <g id="Clip-2"></g>
                        <path d="M18.0400096,9.06084135 C17.3560965,9.06084135 16.8539226,8.51757212 16.8539226,7.86853365 C16.8587052,7.18584135 17.3608791,6.64257212 18.0400096,6.64257212 C18.7239226,6.64257212 19.2260965,7.18584135 19.2260965,7.86853365 C19.2260965,8.51757212 18.7239226,9.06084135 18.0400096,9.06084135 M18.0400096,5.92622596 L18.0017487,5.9646875 C16.4617487,2.42141827 13.0182704,0.113725962 9.21126609,0.00795673077 C5.33740087,-0.102620192 1.74566174,2.06564904 0.0574008696,5.56084135 C-0.157816522,5.99353365 0.487835652,6.32045673 0.703053043,5.88776442 C2.28131391,2.64257212 5.58609652,0.656995192 9.17305304,0.729110577 C12.6882704,0.8396875 15.8112661,2.89257212 17.2843574,6.10411058 C16.6003965,6.39257212 16.1365313,7.08007212 16.1365313,7.87334135 C16.1365313,8.92141827 16.9974009,9.78680288 18.0400096,9.78680288 C19.0826183,9.78680288 19.9434878,8.92141827 19.9434878,7.87334135 C19.9434878,6.79161058 19.0826183,5.92622596 18.0400096,5.92622596" id="Fill-1" fill="#999999" mask="url(#mask-2)"></path>
                    </g>
                    <g id="Group-6" transform="translate(0.000000, 10.140337)">
                        <mask id="mask-4" fill="white">
                            <use xlink:href="#path-3"></use>
                        </mask>
                        <g id="Clip-5"></g>
                        <path d="M1.9034687,3.15216827 C1.25781652,3.15216827 0.717381739,2.60889904 0.717381739,1.92620673 C0.717381739,1.27236058 1.25781652,0.733899038 1.9034687,0.733899038 C2.58738174,0.733899038 3.12303391,1.27716827 3.12303391,1.92620673 C3.12303391,2.61370673 2.58259913,3.15216827 1.9034687,3.15216827 M19.5273817,3.75798558 C17.9825991,7.07529327 14.6825991,9.20505288 11.0573817,9.1329375 C7.43216435,9.09452404 4.20390348,6.96947596 2.73086,3.65216827 C3.37651217,3.32529327 3.84520783,2.67625481 3.84520783,1.92139904 C3.84042522,0.878129808 2.97955565,0.00798557692 1.9034687,0.00798557692 C0.86086,0.00798557692 -9.56521739e-06,0.873370192 -9.56521739e-06,1.92139904 C-9.56521739e-06,3.00312981 0.86086,3.86851442 1.9034687,3.86851442 C1.97520783,3.86851442 2.0134687,3.83010096 2.04694696,3.83010096 L2.04694696,3.86851442 C3.59172957,7.47428365 7.10694696,9.8204375 11.0191209,9.85409135 C14.9312948,9.92620673 18.5182513,7.65221635 20.1730339,4.08486058 C20.354773,3.65216827 19.7043383,3.32529327 19.5273817,3.75798558" id="Fill-4" fill="#999999" mask="url(#mask-4)"></path>
                    </g>
                    <path d="M11.0191257,5.92232212 L11.0191257,5.92232212 C10.8039083,5.96078365 10.66043,6.10501442 10.66043,6.32136058 L10.66043,7.29732212 C10.55043,7.33578365 10.4786909,7.33578365 10.3734735,7.3694375 C9.68956043,7.65789904 9.29738652,8.41751442 9.44086478,9.13866827 C9.58434304,9.85982212 10.2299952,10.4030913 10.9856474,10.4030913 L11.0239083,10.4030913 C11.454343,10.4030913 11.7795604,10.6915529 11.8512996,11.0905913 C11.9612996,11.4896298 11.7412996,11.8502067 11.3826039,12.0280913 C10.9856474,12.1723221 10.5552126,12.0280913 10.3399952,11.7011683 C10.086517,11.268476 9.47912565,11.7011683 9.76608217,12.1002067 C9.98129957,12.4271298 10.306517,12.643476 10.6652126,12.7492452 L10.6652126,13.7588606 C10.6269517,14.2636683 11.3826039,14.2636683 11.3826039,13.7588606 L11.3826039,12.7492452 C11.454343,12.7492452 11.564343,12.7107837 11.6360822,12.6771298 C12.3199952,12.3886683 12.7121691,11.6675144 12.5686909,10.9463606 C12.4252126,10.1867452 11.7795604,9.6819375 11.0239083,9.6819375 L10.9856474,9.6819375 C10.5886909,9.6819375 10.2299952,9.39347596 10.1582561,8.9944375 C10.086517,8.59539904 10.2682561,8.20116827 10.66043,8.0569375 C11.0191257,7.91270673 11.4495604,8.01847596 11.6647778,8.38386058 C11.9517343,8.78289904 12.5256952,8.38386058 12.2769517,7.95116827 C12.0617343,7.66270673 11.7747778,7.44636058 11.4160822,7.33578365 L11.3778213,7.33578365 L11.3778213,6.32616827 C11.3778213,6.10020673 11.1960822,5.92232212 11.0191257,5.92232212" id="Fill-7" fill="#999999"></path>
                </g>
            </g>
        </g>
    </g>
</svg>