<?xml version="1.0" encoding="UTF-8"?>
<svg width="19px" height="18px" viewBox="0 0 19 18" version="1.1" xmlns="http://www.w3.org/2000/svg" xmlns:xlink="http://www.w3.org/1999/xlink">
    <!-- Generator: Sketch 53 (72520) - https://sketchapp.com -->
    <title>icon</title>
    <desc>Created with Sketch.</desc>
    <defs>
        <polygon id="path-1" points="0.0106250791 0.0221833441 13.5098242 0.0221833441 13.5098242 6.34090909 0.0106250791 6.34090909"></polygon>
    </defs>
    <g id="Page-1" stroke="none" stroke-width="1" fill="none" fill-rule="evenodd">
        <g id="Phong-trong" transform="translate(-1048.000000, -418.000000)">
            <g id="tang-1" transform="translate(100.000000, 260.000000)">
                <g id="row-1" transform="translate(0.000000, 42.000000)">
                    <g id="5" transform="translate(840.000000, 0.000000)">
                        <g id="icon" transform="translate(108.000000, 116.000000)">
                            <path d="M4.4694968,5.28892773 L4.40123454,6.55653682 C4.39519829,6.66875045 4.46540512,6.77081864 4.57166738,6.80424136 L5.99034755,7.25043682 C7.11815352,7.62320045 8.29728785,7.81334591 9.48399787,7.81379591 C10.6748401,7.81248682 11.8581066,7.62275045 12.990774,7.25145955 L14.4127356,6.80424136 C14.5189979,6.77081864 14.5892047,6.66875045 14.5831684,6.55653682 L14.5155544,5.30774591 C16.9414371,5.83445045 18.4978571,6.74025955 18.4978571,7.63547318 C18.4978571,8.32610045 17.5720426,9.02867318 15.9577719,9.56298682 C14.2353348,10.1331368 11.9430597,10.4470732 9.50287633,10.4470732 C7.06577186,10.4470732 4.76964819,10.1291686 3.03740725,9.55194136 C1.41576333,9.01149136 0.485735608,8.30478682 0.485735608,7.61280955 C0.486059701,6.72270955 2.04604478,5.81469136 4.4694968,5.28892773 L4.4694968,5.28892773 Z M5.17095736,1.30638682 C5.19660128,0.831023182 5.59900426,0.466605 6.06975053,0.492500455 C6.12237527,0.495405 6.17463539,0.503218636 6.22584222,0.515818636 L8.13394456,0.986273182 C9.02641791,1.20538227 9.95790405,1.20538227 10.8504179,0.986273182 L12.7585203,0.515818636 C13.2165458,0.402868636 13.6785011,0.686286818 13.7903134,1.14876409 C13.802791,1.20051409 13.8105693,1.25324591 13.8134051,1.30638682 L14.0874264,6.39236864 L12.8437164,6.78354136 C10.6651173,7.50243682 8.31644989,7.50219136 6.1380533,6.78276409 L4.89693603,6.39236864 L5.17095736,1.30638682 Z M2.88536674,10.0179368 C4.66545203,10.6111186 7.01573987,10.9378595 9.50320043,10.9378595 C11.9933348,10.9378595 14.3394904,10.6152095 16.1095288,10.0293095 C17.9633049,9.41567318 18.9842814,8.56550045 18.9842814,7.63535045 C18.9842814,6.846255 18.2677505,6.260805 17.666678,5.90853682 C16.8954158,5.45661409 15.7971834,5.07399136 14.4883305,4.80043227 L14.2986546,1.27971409 C14.258467,0.533655 13.6269701,-0.0382540909 12.8881578,0.00228681818 C12.8055139,0.00686863636 12.7234776,0.0191413636 12.6430618,0.0389413636 L10.7349595,0.509395909 C9.91820256,0.709850455 9.0657548,0.709850455 8.24899787,0.509395909 L6.34113859,0.0389413636 C5.62237953,-0.138317727 4.89738166,0.306405 4.72184435,1.03221409 C4.70219616,1.11341864 4.69004264,1.19625955 4.68554584,1.27971409 L4.49700426,4.780305 C4.48562047,4.783005 4.4743177,4.78562318 4.46281237,4.78848682 C3.16177825,5.06302773 2.0671919,5.44953682 1.29698294,5.90636864 C0.44850533,6.40955045 0,6.999705 0,7.61280955 C-8.10234542e-05,8.54394136 1.02466311,9.39783682 2.88536674,10.0179368 L2.88536674,10.0179368 Z" id="Fill-1" fill="#33343A"></path>
                            <g id="Group-5" transform="translate(2.754797, 11.655327)">
                                <mask id="mask-2" fill="white">
                                    <use xlink:href="#path-1"></use>
                                </mask>
                                <g id="Clip-4"></g>
                                <path d="M10.3779013,0.513175909 C11.8372957,0.513135 13.0204407,1.70780318 13.0204407,3.18159409 C13.0204812,4.65534409 11.8373768,5.85005318 10.3779823,5.85009409 C8.91854733,5.85009409 7.73540235,4.65542591 7.73536183,3.181635 L7.73536183,3.181635 C7.7369823,1.70858045 8.9191145,0.514771364 10.3779013,0.513175909 L10.3779013,0.513175909 Z M3.13327015,5.85001227 C1.67383518,5.85001227 0.490730704,4.65530318 0.490730704,3.18155318 C0.490730704,1.70776227 1.67383518,0.513094091 3.13327015,0.513094091 C4.59270512,0.513094091 5.77580959,1.70780318 5.77580959,3.18155318 L5.77580959,3.18159409 C5.77418913,4.65464864 4.59201642,5.84841682 3.13327015,5.85001227 L3.13327015,5.85001227 Z M10.3779013,6.34092136 C12.1058075,6.34272136 13.5080399,4.92968045 13.5098224,3.18482591 C13.5116454,1.43993045 12.1123299,0.023985 10.3843832,0.022185 C9.47331493,0.0212440909 8.60705267,0.421335 8.01201642,1.11797591 C7.54653667,0.769798636 7.14741514,0.612298636 6.73994819,0.612298636 C6.33799083,0.612298636 5.94433838,0.765462273 5.48720405,1.10349409 C4.34935117,-0.207519545 2.37444499,-0.338837727 1.07620618,0.810175909 C-0.222073134,1.95918955 -0.352115778,3.95342591 0.7857371,5.26443955 C1.92358998,6.57541227 3.89845565,6.70673045 5.19673497,5.55775773 C6.35435757,4.53323045 6.60099296,2.81013955 5.77811876,1.49654864 C6.49716141,0.963298636 7.00003348,0.968453182 7.7234919,1.512585 C6.80950682,2.99198045 7.25618913,4.93941682 8.72121471,5.86236682 C9.21825309,6.175485 9.79238529,6.34128955 10.3782254,6.34092136 L10.3779013,6.34092136 Z" id="Fill-3" fill="#33343A" mask="url(#mask-2)"></path>
                            </g>
                        </g>
                    </g>
                </g>
            </g>
        </g>
    </g>
</svg>