<?xml version="1.0" encoding="UTF-8"?>
<svg width="14px" height="18px" viewBox="0 0 14 18" version="1.1" xmlns="http://www.w3.org/2000/svg" xmlns:xlink="http://www.w3.org/1999/xlink">
    <!-- Generator: Sketch 53 (72520) - https://sketchapp.com -->
    <title>icon</title>
    <desc>Created with Sketch.</desc>
    <defs>
        <polygon id="path-1" points="0 0 13.9696727 0 13.9696727 18 0 18"></polygon>
    </defs>
    <g id="Page-1" stroke="none" stroke-width="1" fill="none" fill-rule="evenodd">
        <g id="Phong-trong" transform="translate(-1072.000000, -418.000000)">
            <g id="tang-1" transform="translate(100.000000, 260.000000)">
                <g id="row-1" transform="translate(0.000000, 42.000000)">
                    <g id="5" transform="translate(840.000000, 0.000000)">
                        <g id="icon" transform="translate(132.000000, 116.000000)">
                            <g id="Group-3">
                                <mask id="mask-2" fill="white">
                                    <use xlink:href="#path-1"></use>
                                </mask>
                                <g id="Clip-2"></g>
                                <path d="M3.98725818,3.78492187 L3.48627636,0.7025625 C3.91809455,1.67857031 4.63809455,2.49264844 5.56809455,3.05666016 L6.74551273,3.77078906 C6.81198545,3.82542187 6.89620364,3.85453125 6.98173091,3.85453125 L6.98485818,3.85453125 C7.07064,3.8548125 7.15700364,3.826125 7.22420364,3.77078906 L8.40162182,3.05666016 C9.33173091,2.49264844 10.0516218,1.67857031 10.4818764,0.702140625 L9.98256727,3.78492187 C9.84194909,4.65282422 9.33256727,5.42077734 8.57914909,5.90625 L5.39067636,5.90625 C4.63711273,5.42063672 4.12773091,4.65282422 3.98725818,3.78492187 M13.9391127,16.9770586 L11.2775855,11.1020977 C11.1970764,10.9241367 10.9825673,10.8432422 10.7986036,10.9211133 C10.6146764,10.9989844 10.5308582,11.2063359 10.6114036,11.3841914 L12.84024,16.3038516 C12.6599855,16.2592383 12.4727855,16.2362813 12.2818764,16.2362813 C11.6845673,16.2362813 11.1228945,16.4612461 10.7004582,16.8696562 C10.4155127,17.1451406 10.0364218,17.296875 9.63344,17.296875 C9.23031273,17.296875 8.85133091,17.1451406 8.56624,16.8696562 C7.69434909,16.0266094 6.27547636,16.0266094 5.40358545,16.8696562 C5.11849455,17.1451406 4.73951273,17.296875 4.33642182,17.296875 C3.93344,17.296875 3.55445818,17.1451406 3.26936727,16.8696562 C2.84693091,16.4612461 2.28540364,16.2362813 1.68809455,16.2362813 C1.49718545,16.2362813 1.30998545,16.2592383 1.12973091,16.3038516 L5.28158545,7.13917969 L5.28158545,9.22194141 C5.28158545,9.41610938 5.44434909,9.57350391 5.64522182,9.57350391 C5.84605818,9.57350391 6.00885818,9.41610938 6.00885818,9.22194141 L6.00885818,6.609375 L8.44834909,6.609375 L9.36722182,8.63771484 C9.42704,8.76955078 9.56056727,8.84823047 9.70060364,8.84823047 C9.74933091,8.84823047 9.79874909,8.83877344 9.84620364,8.81873437 C10.0301673,8.74086328 10.1140945,8.53347656 10.03344,8.35565625 L9.14038545,6.38416406 C9.97616727,5.78703516 10.5389673,4.89480469 10.7011855,3.89369531 L11.2004582,0.811054687 C11.2332945,0.607957031 11.1728945,0.401941406 11.0347127,0.2458125 C10.8963491,0.0895429687 10.6952218,0 10.4825673,0 C10.1913673,0 9.92929455,0.167273437 9.81467636,0.426128906 C9.44136727,1.26973828 8.81907636,1.97342578 8.01511273,2.46107812 L6.98485818,3.08576953 L5.95460364,2.46107812 C5.15060364,1.97342578 4.52831273,1.26973828 4.15500364,0.426128906 C4.04053091,0.167273437 3.77831273,0 3.48711273,0 C3.27445818,0 3.07333091,0.0895429687 2.93511273,0.245671875 C2.79693091,0.401941406 2.73653091,0.607957031 2.76936727,0.810914062 L3.26864,3.89369531 C3.43071273,4.89480469 3.99365818,5.78703516 4.82944,6.38416406 L0.0305672727,16.9770586 C-0.0395781818,17.131957 0.01424,17.3132227 0.158712727,17.4085312 C0.303149091,17.5038398 0.497185455,17.4862617 0.620785455,17.3668008 C1.20925818,16.797832 2.16667636,16.797832 2.75500364,17.3668008 C3.17744,17.7750703 3.73911273,18 4.33642182,18 C4.93369455,18 5.49536727,17.7752109 5.91780364,17.3668008 C6.20274909,17.0911758 6.58173091,16.9394063 6.98485818,16.9394063 C7.38798545,16.9394063 7.76693091,17.0911758 8.05202182,17.3668008 C8.47434909,17.7750703 9.03598545,18 9.63329455,18 C10.2307127,18 10.79224,17.7750703 11.2146764,17.3668008 C11.4996218,17.0911758 11.8786036,16.9394063 12.2817309,16.9394063 C12.6848582,16.9394063 13.0638036,17.0911758 13.3488945,17.3668008 C13.4724945,17.4862617 13.6666764,17.5038398 13.8109673,17.4085312 C13.95544,17.3132227 14.0092582,17.131957 13.9391127,16.9770586" id="Fill-1" fill="#33343A" mask="url(#mask-2)"></path>
                            </g>
                            <path d="M5.64521455,10.1306426 C5.54917818,10.1306426 5.45572364,10.1679785 5.38812364,10.2336504 C5.32019636,10.2990059 5.28157818,10.3893574 5.28157818,10.4822051 C5.28157818,10.5746309 5.32019636,10.6654043 5.38812364,10.7307598 C5.45572364,10.7961504 5.54917818,10.8337676 5.64521455,10.8337676 C5.74081455,10.8337676 5.83470545,10.7961504 5.90230545,10.7307598 C5.96994182,10.6654043 6.00885091,10.5746309 6.00885091,10.4822051 C6.00885091,10.3893574 5.96994182,10.2990059 5.90230545,10.2336504 C5.83470545,10.167873 5.74081455,10.1306426 5.64521455,10.1306426" id="Fill-4" fill="#33343A"></path>
                        </g>
                    </g>
                </g>
            </g>
        </g>
    </g>
</svg>